<svg width="28" height="28" viewBox="0 0 28 28" fill="none" xmlns="http://www.w3.org/2000/svg">
<path d="M20.5867 9.97592C20.1634 10.1581 19.7184 10.285 19.2626 10.3534C19.4757 10.3168 19.7892 9.9333 19.914 9.77807C20.1036 9.54391 20.2481 9.27659 20.3401 8.98971C20.3401 8.9684 20.3614 8.93796 20.3401 8.92274C20.3294 8.91688 20.3174 8.91381 20.3051 8.91381C20.2929 8.91381 20.2809 8.91688 20.2701 8.92274C19.7753 9.19073 19.2486 9.39527 18.7025 9.53151C18.6835 9.53733 18.6633 9.53785 18.6439 9.53302C18.6246 9.5282 18.607 9.51821 18.593 9.50412C18.5505 9.45351 18.5047 9.40572 18.456 9.36106C18.2333 9.16152 17.9806 8.9982 17.7072 8.87708C17.3381 8.72567 16.9395 8.6601 16.5414 8.68532C16.1551 8.70972 15.778 8.81333 15.4334 8.98971C15.0942 9.17566 14.796 9.42829 14.5568 9.73241C14.3052 10.0454 14.1236 10.4087 14.0241 10.7978C13.9421 11.1679 13.9328 11.5504 13.9967 11.924C13.9967 11.9879 13.9967 11.997 13.9419 11.9879C11.7717 11.6683 9.991 10.8982 8.53603 9.24539C8.47211 9.17234 8.43863 9.17234 8.38688 9.24539C7.75376 10.2073 8.06119 11.7292 8.85259 12.481C8.95913 12.5815 9.06871 12.6789 9.18437 12.7702C8.82152 12.7444 8.46753 12.6461 8.14337 12.481C8.0825 12.4414 8.04901 12.4628 8.04597 12.5358C8.03734 12.6371 8.03734 12.7389 8.04597 12.8402C8.10948 13.3256 8.30076 13.7854 8.60026 14.1726C8.89975 14.5598 9.29671 14.8605 9.75053 15.044C9.86117 15.0913 9.97644 15.127 10.0945 15.1505C9.75858 15.2166 9.41406 15.2269 9.0748 15.1809C9.00174 15.1657 8.97435 15.2053 9.00174 15.2753C9.44919 16.4928 10.4202 16.8642 11.1324 17.0712C11.2299 17.0864 11.3273 17.0864 11.4368 17.1107C11.4368 17.1107 11.4368 17.1107 11.4186 17.129C11.2085 17.5125 10.3593 17.7713 9.96969 17.9052C9.25855 18.1606 8.50033 18.2583 7.74767 18.1913C7.62896 18.173 7.60157 18.1761 7.57113 18.1913C7.54069 18.2065 7.57113 18.24 7.60461 18.2705C7.7568 18.3709 7.909 18.4592 8.06728 18.5444C8.53848 18.8014 9.03664 19.0056 9.55268 19.1532C12.2252 19.8898 15.2325 19.348 17.2384 17.3542C18.8152 15.7897 19.3691 13.6316 19.3691 11.4705C19.3691 11.3883 19.4696 11.3396 19.5274 11.297C19.9263 10.9861 20.278 10.6191 20.5715 10.2073C20.6223 10.1459 20.6484 10.0677 20.6445 9.98809C20.6445 9.94244 20.6445 9.95157 20.5867 9.97592Z" fill="#33CCFF"/>
</svg>
