<svg width="18" height="18" viewBox="0 0 18 18" fill="none" xmlns="http://www.w3.org/2000/svg">
<path d="M10.2977 2.63272L11.6177 5.27272C11.7977 5.64022 12.2777 5.99272 12.6827 6.06022L15.0752 6.45772C16.6052 6.71272 16.9652 7.82272 15.8627 8.91772L14.0027 10.7777C13.6877 11.0927 13.5152 11.7002 13.6127 12.1352L14.1452 14.4377C14.5652 16.2602 13.5977 16.9652 11.9852 16.0127L9.74268 14.6852C9.33768 14.4452 8.67018 14.4452 8.25768 14.6852L6.01518 16.0127C4.41018 16.9652 3.43518 16.2527 3.85518 14.4377L4.38768 12.1352C4.48518 11.7002 4.31268 11.0927 3.99768 10.7777L2.13768 8.91772C1.04268 7.82272 1.39518 6.71272 2.92518 6.45772L5.31768 6.06022C5.71518 5.99272 6.19518 5.64022 6.37518 5.27272L7.69518 2.63272C8.41518 1.20022 9.58518 1.20022 10.2977 2.63272Z" fill="#FFA439"/>
</svg>
